<svg width="18" height="17" viewBox="0 0 18 17" fill="none" xmlns="http://www.w3.org/2000/svg">
<path d="M13.406 3.9296V12.9396C13.406 13.4919 13.8538 13.9396 14.406 13.9396C14.9583 13.9396 15.406 13.4919 15.406 12.9396V3.9296H17.4387C17.7952 3.9296 17.9736 3.49825 17.7211 3.2464L15.1122 0.644063C14.7219 0.254713 14.0901 0.254713 13.6999 0.644063L11.091 3.2464C10.8385 3.49824 11.0169 3.9296 11.3735 3.9296H13.406ZM7.72115 13.6328C7.97365 13.3809 7.79525 12.9496 7.43865 12.9496H5.40606V3.9396C5.40606 3.38732 4.95835 2.9396 4.40606 2.9396C3.85378 2.9396 3.40606 3.38732 3.40606 3.9396V12.9496H1.37346C1.01685 12.9496 0.8385 13.3809 1.09097 13.6328L3.69984 16.2351C4.09016 16.6245 4.72196 16.6245 5.11228 16.2351L7.72115 13.6328Z" fill="#026D4E"/>
</svg>
