<svg width="20" height="21" viewBox="0 0 20 21" fill="none" xmlns="http://www.w3.org/2000/svg">
<g clip-path="url(#clip0_1_1239)">
<path d="M12.7599 8.13004C12.5012 8.13004 12.2915 8.33971 12.2915 8.59842V17.4509C12.2915 17.7094 12.5012 17.9193 12.7599 17.9193C13.0186 17.9193 13.2283 17.7094 13.2283 17.4509V8.59842C13.2283 8.33971 13.0186 8.13004 12.7599 8.13004Z" fill="#374151"/>
<path d="M7.23157 8.13049C6.97286 8.13049 6.76318 8.34017 6.76318 8.59888V17.4513C6.76318 17.7099 6.97286 17.9197 7.23157 17.9197C7.49028 17.9197 7.69995 17.7099 7.69995 17.4513V8.59888C7.69995 8.34017 7.49028 8.13049 7.23157 8.13049Z" fill="#374151"/>
<path d="M3.20431 6.83856V18.3785C3.20431 19.0606 3.45442 19.7012 3.89133 20.1608C4.32623 20.6216 4.93147 20.8833 5.56488 20.8844H14.4268C15.0604 20.8833 15.6657 20.6216 16.1004 20.1608C16.5373 19.7012 16.7874 19.0606 16.7874 18.3785V6.83856C17.6559 6.60803 18.2187 5.76897 18.1025 4.87776C17.9862 3.98673 17.2271 3.3202 16.3284 3.32002H13.9303V2.73454C13.933 2.24219 13.7383 1.76942 13.3898 1.42161C13.0413 1.07398 12.5677 0.880405 12.0754 0.88443H7.91631C7.42396 0.880405 6.95045 1.07398 6.60191 1.42161C6.25337 1.76942 6.0587 2.24219 6.06144 2.73454V3.32002H3.66336C2.76465 3.3202 2.00554 3.98673 1.88918 4.87776C1.773 5.76897 2.33579 6.60803 3.20431 6.83856ZM14.4268 19.9476H5.56488C4.76406 19.9476 4.14107 19.2597 4.14107 18.3785V6.87973H15.8506V18.3785C15.8506 19.2597 15.2277 19.9476 14.4268 19.9476ZM6.99821 2.73454C6.9951 2.49065 7.09097 2.25591 7.26405 2.08375C7.43695 1.91158 7.67224 1.81699 7.91631 1.8212H12.0754C12.3195 1.81699 12.5548 1.91158 12.7277 2.08375C12.9007 2.25573 12.9966 2.49065 12.9935 2.73454V3.32002H6.99821V2.73454ZM3.66336 4.25679H16.3284C16.794 4.25679 17.1714 4.63424 17.1714 5.09987C17.1714 5.56551 16.794 5.94296 16.3284 5.94296H3.66336C3.19772 5.94296 2.82027 5.56551 2.82027 5.09987C2.82027 4.63424 3.19772 4.25679 3.66336 4.25679Z" fill="#374151"/>
<path d="M9.99621 8.13004C9.7375 8.13004 9.52783 8.33971 9.52783 8.59842V17.4509C9.52783 17.7094 9.7375 17.9193 9.99621 17.9193C10.2549 17.9193 10.4646 17.7094 10.4646 17.4509V8.59842C10.4646 8.33971 10.2549 8.13004 9.99621 8.13004Z" fill="#374151"/>
</g>
<defs>
<clipPath id="clip0_1_1239">
<rect width="20" height="20" fill="white" transform="translate(0 0.884766)"/>
</clipPath>
</defs>
</svg>
