<svg width="14" height="14" viewBox="0 0 14 14" fill="none" xmlns="http://www.w3.org/2000/svg">
<path d="M0.993089 11.5597C0.602564 11.9503 0.602564 12.5834 0.993089 12.974C1.38361 13.3645 2.01678 13.3645 2.4073 12.974L0.993089 11.5597ZM13.9583 1.0087C13.9583 0.45641 13.5106 0.00869505 12.9583 0.00869505L3.95835 0.00869505C3.40606 0.00869505 2.95835 0.45641 2.95835 1.0087C2.95835 1.56098 3.40606 2.0087 3.95835 2.0087H11.9583V10.0087C11.9583 10.561 12.4061 11.0087 12.9583 11.0087C13.5106 11.0087 13.9583 10.561 13.9583 10.0087L13.9583 1.0087ZM2.4073 12.974L13.6655 1.7158L12.2512 0.301588L0.993089 11.5597L2.4073 12.974Z" fill="#F35C37"/>
</svg>
