<svg width="102" height="144" viewBox="0 0 102 144" fill="none" xmlns="http://www.w3.org/2000/svg">
<mask id="mask0_1_272" style="mask-type:luminance" maskUnits="userSpaceOnUse" x="40" y="-77" width="191" height="191">
<path d="M68.124 -48.5851C31.0242 -11.4852 31.0242 48.6654 68.124 85.7652C105.224 122.865 165.374 122.865 202.474 85.7652C239.574 48.6654 239.574 -11.4852 202.474 -48.5851C165.374 -85.6849 105.224 -85.6849 68.124 -48.5851Z" fill="white"/>
</mask>
<g mask="url(#mask0_1_272)">
<path d="M93.2799 111.52C92.6299 110.87 92.6299 109.83 93.2799 109.18C93.9299 108.53 94.9699 108.53 95.6199 109.18C96.2699 109.83 96.2699 110.87 95.6199 111.52C94.9699 112.17 93.9299 112.17 93.2799 111.52Z" fill="black"/>
<path d="M83.0895 111.52C82.4395 110.87 82.4395 109.83 83.0895 109.18C83.7395 108.53 84.7795 108.53 85.4295 109.18C86.0795 109.83 86.0795 110.87 85.4295 111.52C84.7795 112.17 83.7395 112.17 83.0895 111.52Z" fill="black"/>
<path d="M72.8893 111.52C72.2393 110.87 72.2393 109.83 72.8893 109.18C73.5393 108.53 74.5793 108.53 75.2293 109.18C75.8793 109.83 75.8793 110.87 75.2293 111.52C74.5793 112.17 73.5393 112.17 72.8893 111.52Z" fill="black"/>
<path d="M62.6891 111.52C62.0391 110.87 62.0391 109.83 62.6891 109.18C63.3391 108.53 64.3791 108.53 65.0291 109.18C65.6791 109.83 65.6791 110.87 65.0291 111.52C64.3791 112.17 63.3391 112.17 62.6891 111.52Z" fill="black"/>
<path d="M52.4899 111.52C51.8399 110.87 51.8399 109.83 52.4899 109.18C53.1399 108.53 54.1799 108.53 54.8299 109.18C55.4799 109.83 55.4799 110.87 54.8299 111.52C54.1799 112.17 53.1399 112.17 52.4899 111.52Z" fill="black"/>
<path d="M42.2896 111.52C41.6396 110.87 41.6396 109.83 42.2896 109.18C42.9396 108.53 43.9796 108.53 44.6296 109.18C45.2796 109.83 45.2796 110.87 44.6296 111.52C43.9796 112.17 42.9396 112.17 42.2896 111.52Z" fill="black"/>
<path d="M93.2799 101.24C92.6299 100.59 92.6299 99.5496 93.2799 98.8996C93.9299 98.2496 94.9699 98.2496 95.6199 98.8996C96.2699 99.5496 96.2699 100.59 95.6199 101.24C94.9699 101.89 93.9299 101.89 93.2799 101.24Z" fill="black"/>
<path d="M83.0895 101.24C82.4395 100.59 82.4395 99.5496 83.0895 98.8996C83.7395 98.2496 84.7795 98.2496 85.4295 98.8996C86.0795 99.5496 86.0795 100.59 85.4295 101.24C84.7795 101.89 83.7395 101.89 83.0895 101.24Z" fill="black"/>
<path d="M72.8893 101.24C72.2393 100.59 72.2393 99.5496 72.8893 98.8996C73.5393 98.2496 74.5793 98.2496 75.2293 98.8996C75.8793 99.5496 75.8793 100.59 75.2293 101.24C74.5793 101.89 73.5393 101.89 72.8893 101.24Z" fill="black"/>
<path d="M62.6891 101.24C62.0391 100.59 62.0391 99.5496 62.6891 98.8996C63.3391 98.2496 64.3791 98.2496 65.0291 98.8996C65.6791 99.5496 65.6791 100.59 65.0291 101.24C64.3791 101.89 63.3391 101.89 62.6891 101.24Z" fill="black"/>
<path d="M52.4899 101.24C51.8399 100.59 51.8399 99.5496 52.4899 98.8996C53.1399 98.2496 54.1799 98.2496 54.8299 98.8996C55.4799 99.5496 55.4799 100.59 54.8299 101.24C54.1799 101.89 53.1399 101.89 52.4899 101.24Z" fill="black"/>
<path d="M42.2896 101.24C41.6396 100.59 41.6396 99.5496 42.2896 98.8996C42.9396 98.2496 43.9796 98.2496 44.6296 98.8996C45.2796 99.5496 45.2796 100.59 44.6296 101.24C43.9796 101.89 42.9396 101.89 42.2896 101.24Z" fill="black"/>
<path d="M93.2799 90.9695C92.6299 90.3195 92.6299 89.2795 93.2799 88.6295C93.9299 87.9795 94.9699 87.9795 95.6199 88.6295C96.2699 89.2795 96.2699 90.3195 95.6199 90.9695C94.9699 91.6195 93.9299 91.6195 93.2799 90.9695Z" fill="black"/>
<path d="M83.0895 90.9695C82.4395 90.3195 82.4395 89.2795 83.0895 88.6295C83.7395 87.9795 84.7795 87.9795 85.4295 88.6295C86.0795 89.2795 86.0795 90.3195 85.4295 90.9695C84.7795 91.6195 83.7395 91.6195 83.0895 90.9695Z" fill="black"/>
<path d="M72.8893 90.9695C72.2393 90.3195 72.2393 89.2795 72.8893 88.6295C73.5393 87.9795 74.5793 87.9795 75.2293 88.6295C75.8793 89.2795 75.8793 90.3195 75.2293 90.9695C74.5793 91.6195 73.5393 91.6195 72.8893 90.9695Z" fill="black"/>
<path d="M62.6891 90.9695C62.0391 90.3195 62.0391 89.2795 62.6891 88.6295C63.3391 87.9795 64.3791 87.9795 65.0291 88.6295C65.6791 89.2795 65.6791 90.3195 65.0291 90.9695C64.3791 91.6195 63.3391 91.6195 62.6891 90.9695Z" fill="black"/>
<path d="M52.4899 90.9695C51.8399 90.3195 51.8399 89.2795 52.4899 88.6295C53.1399 87.9795 54.1799 87.9795 54.8299 88.6295C55.4799 89.2795 55.4799 90.3195 54.8299 90.9695C54.1799 91.6195 53.1399 91.6195 52.4899 90.9695Z" fill="black"/>
<path d="M42.2896 90.9695C41.6396 90.3195 41.6396 89.2795 42.2896 88.6295C42.9396 87.9795 43.9796 87.9795 44.6296 88.6295C45.2796 89.2795 45.2796 90.3195 44.6296 90.9695C43.9796 91.6195 42.9396 91.6195 42.2896 90.9695Z" fill="black"/>
<path d="M93.2799 80.6895C92.6299 80.0395 92.6299 78.9995 93.2799 78.3495C93.9299 77.6995 94.9699 77.6995 95.6199 78.3495C96.2699 78.9995 96.2699 80.0395 95.6199 80.6895C94.9699 81.3395 93.9299 81.3395 93.2799 80.6895Z" fill="black"/>
<path d="M83.0895 80.6896C82.4395 80.0396 82.4395 78.9996 83.0895 78.3496C83.7395 77.6996 84.7795 77.6996 85.4295 78.3496C86.0795 78.9996 86.0795 80.0396 85.4295 80.6896C84.7795 81.3396 83.7395 81.3396 83.0895 80.6896Z" fill="black"/>
<path d="M72.8893 80.6895C72.2393 80.0395 72.2393 78.9995 72.8893 78.3495C73.5393 77.6995 74.5793 77.6995 75.2293 78.3495C75.8793 78.9995 75.8793 80.0395 75.2293 80.6895C74.5793 81.3395 73.5393 81.3395 72.8893 80.6895Z" fill="black"/>
<path d="M62.6891 80.6895C62.0391 80.0395 62.0391 78.9995 62.6891 78.3495C63.3391 77.6995 64.3791 77.6995 65.0291 78.3495C65.6791 78.9995 65.6791 80.0395 65.0291 80.6895C64.3791 81.3395 63.3391 81.3395 62.6891 80.6895Z" fill="black"/>
<path d="M52.4899 80.6895C51.8399 80.0395 51.8399 78.9995 52.4899 78.3495C53.1399 77.6995 54.1799 77.6995 54.8299 78.3495C55.4799 78.9995 55.4799 80.0395 54.8299 80.6895C54.1799 81.3395 53.1399 81.3395 52.4899 80.6895Z" fill="black"/>
<path d="M42.2896 80.6896C41.6396 80.0396 41.6396 78.9996 42.2896 78.3496C42.9396 77.6996 43.9796 77.6996 44.6296 78.3496C45.2796 78.9996 45.2796 80.0396 44.6296 80.6896C43.9796 81.3396 42.9396 81.3396 42.2896 80.6896Z" fill="black"/>
<path d="M93.2799 70.4095C92.6299 69.7595 92.6299 68.7195 93.2799 68.0695C93.9299 67.4195 94.9699 67.4195 95.6199 68.0695C96.2699 68.7195 96.2699 69.7595 95.6199 70.4095C94.9699 71.0595 93.9299 71.0595 93.2799 70.4095Z" fill="black"/>
<path d="M83.0895 70.4096C82.4395 69.7596 82.4395 68.7196 83.0895 68.0696C83.7395 67.4196 84.7795 67.4196 85.4295 68.0696C86.0795 68.7196 86.0795 69.7596 85.4295 70.4096C84.7795 71.0596 83.7395 71.0596 83.0895 70.4096Z" fill="black"/>
<path d="M72.8893 70.4095C72.2393 69.7595 72.2393 68.7195 72.8893 68.0695C73.5393 67.4195 74.5793 67.4195 75.2293 68.0695C75.8793 68.7195 75.8793 69.7595 75.2293 70.4095C74.5793 71.0595 73.5393 71.0595 72.8893 70.4095Z" fill="black"/>
<path d="M62.6891 70.4095C62.0391 69.7595 62.0391 68.7195 62.6891 68.0695C63.3391 67.4195 64.3791 67.4195 65.0291 68.0695C65.6791 68.7195 65.6791 69.7595 65.0291 70.4095C64.3791 71.0595 63.3391 71.0595 62.6891 70.4095Z" fill="black"/>
<path d="M52.4899 70.4095C51.8399 69.7595 51.8399 68.7195 52.4899 68.0695C53.1399 67.4195 54.1799 67.4195 54.8299 68.0695C55.4799 68.7195 55.4799 69.7595 54.8299 70.4095C54.1799 71.0595 53.1399 71.0595 52.4899 70.4095Z" fill="black"/>
<path d="M42.2896 70.4096C41.6396 69.7596 41.6396 68.7196 42.2896 68.0696C42.9396 67.4196 43.9796 67.4196 44.6296 68.0696C45.2796 68.7196 45.2796 69.7596 44.6296 70.4096C43.9796 71.0596 42.9396 71.0596 42.2896 70.4096Z" fill="black"/>
<path d="M93.2799 60.1397C92.6299 59.4897 92.6299 58.4497 93.2799 57.7997C93.9299 57.1497 94.9699 57.1497 95.6199 57.7997C96.2699 58.4497 96.2699 59.4897 95.6199 60.1397C94.9699 60.7897 93.9299 60.7897 93.2799 60.1397Z" fill="black"/>
<path d="M83.0895 60.1396C82.4395 59.4896 82.4395 58.4496 83.0895 57.7996C83.7395 57.1496 84.7795 57.1496 85.4295 57.7996C86.0795 58.4496 86.0795 59.4896 85.4295 60.1396C84.7795 60.7896 83.7395 60.7896 83.0895 60.1396Z" fill="black"/>
<path d="M72.8893 60.1397C72.2393 59.4897 72.2393 58.4497 72.8893 57.7997C73.5393 57.1497 74.5793 57.1497 75.2293 57.7997C75.8793 58.4497 75.8793 59.4897 75.2293 60.1397C74.5793 60.7897 73.5393 60.7897 72.8893 60.1397Z" fill="black"/>
<path d="M62.6891 60.1397C62.0391 59.4897 62.0391 58.4497 62.6891 57.7997C63.3391 57.1497 64.3791 57.1497 65.0291 57.7997C65.6791 58.4497 65.6791 59.4897 65.0291 60.1397C64.3791 60.7897 63.3391 60.7897 62.6891 60.1397Z" fill="black"/>
<path d="M52.4899 60.1397C51.8399 59.4897 51.8399 58.4497 52.4899 57.7997C53.1399 57.1497 54.1799 57.1497 54.8299 57.7997C55.4799 58.4497 55.4799 59.4897 54.8299 60.1397C54.1799 60.7897 53.1399 60.7897 52.4899 60.1397Z" fill="black"/>
<path d="M42.2896 60.1396C41.6396 59.4896 41.6396 58.4496 42.2896 57.7996C42.9396 57.1496 43.9796 57.1496 44.6296 57.7996C45.2796 58.4496 45.2796 59.4896 44.6296 60.1396C43.9796 60.7896 42.9396 60.7896 42.2896 60.1396Z" fill="black"/>
<path d="M93.2799 49.8597C92.6299 49.2097 92.6299 48.1696 93.2799 47.5196C93.9299 46.8696 94.9699 46.8696 95.6199 47.5196C96.2699 48.1696 96.2699 49.2097 95.6199 49.8597C94.9699 50.5097 93.9299 50.5097 93.2799 49.8597Z" fill="black"/>
<path d="M83.0895 49.8597C82.4395 49.2097 82.4395 48.1696 83.0895 47.5196C83.7395 46.8696 84.7795 46.8696 85.4295 47.5196C86.0795 48.1696 86.0795 49.2097 85.4295 49.8597C84.7795 50.5097 83.7395 50.5097 83.0895 49.8597Z" fill="black"/>
<path d="M72.8893 49.8597C72.2393 49.2097 72.2393 48.1696 72.8893 47.5196C73.5393 46.8696 74.5793 46.8696 75.2293 47.5196C75.8793 48.1696 75.8793 49.2097 75.2293 49.8597C74.5793 50.5097 73.5393 50.5097 72.8893 49.8597Z" fill="black"/>
<path d="M62.6891 49.8597C62.0391 49.2097 62.0391 48.1696 62.6891 47.5196C63.3391 46.8696 64.3791 46.8696 65.0291 47.5196C65.6791 48.1696 65.6791 49.2097 65.0291 49.8597C64.3791 50.5097 63.3391 50.5097 62.6891 49.8597Z" fill="black"/>
<path d="M52.4899 49.8597C51.8399 49.2097 51.8399 48.1696 52.4899 47.5196C53.1399 46.8696 54.1799 46.8696 54.8299 47.5196C55.4799 48.1696 55.4799 49.2097 54.8299 49.8597C54.1799 50.5097 53.1399 50.5097 52.4899 49.8597Z" fill="black"/>
<path d="M42.2896 49.8597C41.6396 49.2097 41.6396 48.1696 42.2896 47.5196C42.9396 46.8696 43.9796 46.8696 44.6296 47.5196C45.2796 48.1696 45.2796 49.2097 44.6296 49.8597C43.9796 50.5097 42.9396 50.5097 42.2896 49.8597Z" fill="black"/>
<path d="M93.2799 39.5796C92.6299 38.9296 92.6299 37.8896 93.2799 37.2396C93.9299 36.5896 94.9699 36.5896 95.6199 37.2396C96.2699 37.8896 96.2699 38.9296 95.6199 39.5796C94.9699 40.2296 93.9299 40.2296 93.2799 39.5796Z" fill="black"/>
<path d="M83.0895 39.5796C82.4395 38.9296 82.4395 37.8896 83.0895 37.2396C83.7395 36.5896 84.7795 36.5896 85.4295 37.2396C86.0795 37.8896 86.0795 38.9296 85.4295 39.5796C84.7795 40.2296 83.7395 40.2296 83.0895 39.5796Z" fill="black"/>
<path d="M72.8893 39.5796C72.2393 38.9296 72.2393 37.8896 72.8893 37.2396C73.5393 36.5896 74.5793 36.5896 75.2293 37.2396C75.8793 37.8896 75.8793 38.9296 75.2293 39.5796C74.5793 40.2296 73.5393 40.2296 72.8893 39.5796Z" fill="black"/>
<path d="M62.6891 39.5796C62.0391 38.9296 62.0391 37.8896 62.6891 37.2396C63.3391 36.5896 64.3791 36.5896 65.0291 37.2396C65.6791 37.8896 65.6791 38.9296 65.0291 39.5796C64.3791 40.2296 63.3391 40.2296 62.6891 39.5796Z" fill="black"/>
<path d="M52.4899 39.5796C51.8399 38.9296 51.8399 37.8896 52.4899 37.2396C53.1399 36.5896 54.1799 36.5896 54.8299 37.2396C55.4799 37.8896 55.4799 38.9296 54.8299 39.5796C54.1799 40.2296 53.1399 40.2296 52.4899 39.5796Z" fill="black"/>
<path d="M42.2896 39.5796C41.6396 38.9296 41.6396 37.8896 42.2896 37.2396C42.9396 36.5896 43.9796 36.5896 44.6296 37.2396C45.2796 37.8896 45.2796 38.9296 44.6296 39.5796C43.9796 40.2296 42.9396 40.2296 42.2896 39.5796Z" fill="black"/>
<path d="M93.2799 29.3096C92.6299 28.6596 92.6299 27.6196 93.2799 26.9696C93.9299 26.3196 94.9699 26.3196 95.6199 26.9696C96.2699 27.6196 96.2699 28.6596 95.6199 29.3096C94.9699 29.9596 93.9299 29.9596 93.2799 29.3096Z" fill="black"/>
<path d="M83.0895 29.3096C82.4395 28.6596 82.4395 27.6196 83.0895 26.9696C83.7395 26.3196 84.7795 26.3196 85.4295 26.9696C86.0795 27.6196 86.0795 28.6596 85.4295 29.3096C84.7795 29.9596 83.7395 29.9596 83.0895 29.3096Z" fill="black"/>
<path d="M72.8893 29.3096C72.2393 28.6596 72.2393 27.6196 72.8893 26.9696C73.5393 26.3196 74.5793 26.3196 75.2293 26.9696C75.8793 27.6196 75.8793 28.6596 75.2293 29.3096C74.5793 29.9596 73.5393 29.9596 72.8893 29.3096Z" fill="black"/>
<path d="M62.6891 29.3096C62.0391 28.6596 62.0391 27.6196 62.6891 26.9696C63.3391 26.3196 64.3791 26.3196 65.0291 26.9696C65.6791 27.6196 65.6791 28.6596 65.0291 29.3096C64.3791 29.9596 63.3391 29.9596 62.6891 29.3096Z" fill="black"/>
<path d="M52.4899 29.3096C51.8399 28.6596 51.8399 27.6196 52.4899 26.9696C53.1399 26.3196 54.1799 26.3196 54.8299 26.9696C55.4799 27.6196 55.4799 28.6596 54.8299 29.3096C54.1799 29.9596 53.1399 29.9596 52.4899 29.3096Z" fill="black"/>
<path d="M42.2896 29.3096C41.6396 28.6596 41.6396 27.6196 42.2896 26.9696C42.9396 26.3196 43.9796 26.3196 44.6296 26.9696C45.2796 27.6196 45.2796 28.6596 44.6296 29.3096C43.9796 29.9596 42.9396 29.9596 42.2896 29.3096Z" fill="black"/>
<path d="M93.2799 18.4096C92.6299 17.7596 92.6299 16.7196 93.2799 16.0696C93.9299 15.4196 94.9699 15.4196 95.6199 16.0696C96.2699 16.7196 96.2699 17.7596 95.6199 18.4096C94.9699 19.0596 93.9299 19.0596 93.2799 18.4096Z" fill="black"/>
<path d="M83.0895 18.4096C82.4395 17.7596 82.4395 16.7196 83.0895 16.0696C83.7395 15.4196 84.7795 15.4196 85.4295 16.0696C86.0795 16.7196 86.0795 17.7596 85.4295 18.4096C84.7795 19.0596 83.7395 19.0596 83.0895 18.4096Z" fill="black"/>
<path d="M72.8893 18.4096C72.2393 17.7596 72.2393 16.7196 72.8893 16.0696C73.5393 15.4196 74.5793 15.4196 75.2293 16.0696C75.8793 16.7196 75.8793 17.7596 75.2293 18.4096C74.5793 19.0596 73.5393 19.0596 72.8893 18.4096Z" fill="black"/>
<path d="M62.6891 18.4096C62.0391 17.7596 62.0391 16.7196 62.6891 16.0696C63.3391 15.4196 64.3791 15.4196 65.0291 16.0696C65.6791 16.7196 65.6791 17.7596 65.0291 18.4096C64.3791 19.0596 63.3391 19.0596 62.6891 18.4096Z" fill="black"/>
<path d="M52.4899 18.4096C51.8399 17.7596 51.8399 16.7196 52.4899 16.0696C53.1399 15.4196 54.1799 15.4196 54.8299 16.0696C55.4799 16.7196 55.4799 17.7596 54.8299 18.4096C54.1799 19.0596 53.1399 19.0596 52.4899 18.4096Z" fill="black"/>
<path d="M42.2896 18.4096C41.6396 17.7596 41.6396 16.7196 42.2896 16.0696C42.9396 15.4196 43.9796 15.4196 44.6296 16.0696C45.2796 16.7196 45.2796 17.7596 44.6296 18.4096C43.9796 19.0596 42.9396 19.0596 42.2896 18.4096Z" fill="black"/>
<path d="M93.2799 8.12957C92.6299 7.47957 92.6299 6.4396 93.2799 5.7896C93.9299 5.1396 94.9699 5.1396 95.6199 5.7896C96.2699 6.4396 96.2699 7.47957 95.6199 8.12957C94.9699 8.77957 93.9299 8.77957 93.2799 8.12957Z" fill="black"/>
<path d="M83.0895 8.12957C82.4395 7.47957 82.4395 6.4396 83.0895 5.7896C83.7395 5.1396 84.7795 5.1396 85.4295 5.7896C86.0795 6.4396 86.0795 7.47957 85.4295 8.12957C84.7795 8.77957 83.7395 8.77957 83.0895 8.12957Z" fill="black"/>
<path d="M72.8893 8.12957C72.2393 7.47957 72.2393 6.4396 72.8893 5.7896C73.5393 5.1396 74.5793 5.1396 75.2293 5.7896C75.8793 6.4396 75.8793 7.47957 75.2293 8.12957C74.5793 8.77957 73.5393 8.77957 72.8893 8.12957Z" fill="black"/>
<path d="M62.6891 8.12957C62.0391 7.47957 62.0391 6.4396 62.6891 5.7896C63.3391 5.1396 64.3791 5.1396 65.0291 5.7896C65.6791 6.4396 65.6791 7.47957 65.0291 8.12957C64.3791 8.77957 63.3391 8.77957 62.6891 8.12957Z" fill="black"/>
<path d="M52.4899 8.12957C51.8399 7.47957 51.8399 6.4396 52.4899 5.7896C53.1399 5.1396 54.1799 5.1396 54.8299 5.7896C55.4799 6.4396 55.4799 7.47957 54.8299 8.12957C54.1799 8.77957 53.1399 8.77957 52.4899 8.12957Z" fill="black"/>
<path d="M42.2896 8.12957C41.6396 7.47957 41.6396 6.4396 42.2896 5.7896C42.9396 5.1396 43.9796 5.1396 44.6296 5.7896C45.2796 6.4396 45.2796 7.47957 44.6296 8.12957C43.9796 8.77957 42.9396 8.77957 42.2896 8.12957Z" fill="black"/>
</g>
</svg>
