<svg width="18" height="18" viewBox="0 0 18 18" fill="none" xmlns="http://www.w3.org/2000/svg">
<path d="M5.32187 15.1767C6.37727 15.7648 7.58945 16.0977 8.87896 16.0977C12.9246 16.0977 16.2119 12.808 16.2119 8.76318C16.2119 4.71841 12.9246 1.42871 8.87896 1.42871H8.87592C4.83043 1.42871 1.54297 4.71755 1.54297 8.76318C1.54297 10.15 1.93016 11.4517 2.60416 12.5601L2.23343 14.032L1.73041 16.029L3.7342 15.5535L5.32187 15.1767Z" fill="white" stroke="#FFC844" stroke-width="2.5"/>
<path d="M11.9062 11.7432L11.8546 11.7948C11.5972 12.0543 11.2523 12.2083 10.8873 12.2268H10.6326C9.28494 12.2268 8.20157 11.7238 7.05707 10.5825C5.84151 9.36693 5.35149 8.22237 5.41922 6.75214H5.41915C5.43764 6.38718 5.59173 6.04224 5.85117 5.78488L5.90277 5.73328C6.22915 5.40553 6.69054 5.25007 7.14869 5.31349C7.60684 5.37682 8.00873 5.65166 8.2339 6.0557L8.30487 6.18466H8.30479C8.39432 6.34782 8.42865 6.53559 8.40246 6.7199C8.37633 6.90414 8.29112 7.07499 8.1597 7.20677L7.72768 7.6388C7.97712 8.11891 8.30385 8.5546 8.69494 8.92848C9.06881 9.31956 9.50451 9.64629 9.98462 9.89574L10.4134 9.4701C10.5483 9.33761 10.723 9.2532 10.9107 9.22987C11.0983 9.20656 11.2884 9.24564 11.4516 9.34114L11.5806 9.4121C11.9846 9.6373 12.2595 10.0391 12.3228 10.4973C12.3862 10.9555 12.2307 11.4168 11.903 11.7432L11.9062 11.7432Z" fill="#FFC844"/>
</svg>
