<svg width="17" height="18" viewBox="0 0 17 18" fill="none" xmlns="http://www.w3.org/2000/svg">
<path d="M12.1159 0.919189H4.49991C2.02121 0.919189 0.00469971 2.9357 0.00469971 5.4144V13.0305C0.00469971 15.5091 2.02121 17.5256 4.49991 17.5256H12.1161C14.5946 17.5256 16.6111 15.5091 16.6111 13.0305V5.4144C16.6111 2.9357 14.5946 0.919189 12.1159 0.919189V0.919189ZM8.30792 13.7631C5.80413 13.7631 3.76722 11.7262 3.76722 9.22241C3.76722 6.71862 5.80413 4.68171 8.30792 4.68171C10.8117 4.68171 12.8486 6.71862 12.8486 9.22241C12.8486 11.7262 10.8117 13.7631 8.30792 13.7631ZM12.9572 5.75256C12.2173 5.75256 11.6155 5.15075 11.6155 4.41084C11.6155 3.67092 12.2173 3.06899 12.9572 3.06899C13.6971 3.06899 14.299 3.67092 14.299 4.41084C14.299 5.15075 13.6971 5.75256 12.9572 5.75256Z" fill="#FFC844"/>
<path d="M8.30818 5.65503C6.34134 5.65503 4.74103 7.25521 4.74103 9.22219C4.74103 11.189 6.34134 12.7893 8.30818 12.7893C10.2752 12.7893 11.8753 11.189 11.8753 9.22219C11.8753 7.25521 10.2752 5.65503 8.30818 5.65503Z" fill="#FFC844"/>
<path d="M12.9569 4.04199C12.7539 4.04199 12.5887 4.20721 12.5887 4.41017C12.5887 4.61314 12.7539 4.77836 12.9569 4.77836C13.16 4.77836 13.3252 4.61327 13.3252 4.41017C13.3252 4.20708 13.16 4.04199 12.9569 4.04199Z" fill="#FFC844"/>
</svg>
