<svg width="135" height="38" viewBox="0 0 135 38" fill="none" xmlns="http://www.w3.org/2000/svg">
<path d="M19.4097 0.663574C15.7505 0.663574 12.1734 1.74367 9.13085 3.76728C6.08831 5.79088 3.71688 8.66711 2.31655 12.0323C0.916219 15.3974 0.549829 19.1003 1.26371 22.6727C1.9776 26.2452 3.73971 29.5265 6.32717 32.1019C8.91466 34.6775 12.2114 36.4316 15.8003 37.1424C19.3892 37.8529 23.1092 37.4882 26.49 36.0945C29.8708 34.7004 32.76 32.3399 34.7932 29.3114C36.8262 26.2829 37.9112 22.7222 37.9112 19.0798C37.9112 14.1955 35.9621 9.51128 32.4923 6.05758C29.0225 2.60385 24.3167 0.663574 19.4097 0.663574ZM30.7748 21.7713C30.7748 22.1396 29.1044 22.1922 29.1044 22.5605C29.1044 22.9289 30.7565 23.4287 30.7565 23.9366C30.7565 24.5574 27.3521 24.6494 27.3521 25.2704C27.3521 25.9334 29.9343 25.7281 29.9343 26.4464C29.9343 27.2935 23.4484 26.8989 23.4484 27.7802C23.4484 28.1169 24.2784 28.2564 25.3171 28.367C25.888 28.43 25.7636 28.7089 25.4387 28.8932C23.6229 29.9959 21.5369 30.5794 19.4097 30.5794C17.2826 30.5794 15.1966 29.9959 13.3808 28.8932C13.0584 28.6959 12.9315 28.417 13.5024 28.367C14.5412 28.2564 15.3738 28.1039 15.3738 27.7802C15.3738 26.8989 8.88499 27.2935 8.88499 26.4464C8.88499 25.7281 11.47 25.9202 11.47 25.2704C11.47 24.6494 8.06305 24.5574 8.06305 23.9366C8.06305 23.4287 9.71762 22.9368 9.71762 22.5605C9.71762 22.1843 8.04453 22.1422 8.04453 21.7713C8.04453 21.4003 9.26565 21.1609 9.26565 20.8978C9.26565 20.4006 7.84628 21.3056 7.84628 19.0798C7.84628 16.0272 9.06463 13.0995 11.2332 10.9409C13.4018 8.78236 16.3429 7.56967 19.4097 7.56967C22.4765 7.56967 25.4178 8.78236 27.5864 10.9409C29.7549 13.0995 30.9731 16.0272 30.9731 19.0798C30.9731 21.3056 29.5539 20.3953 29.5539 20.8978C29.5539 21.1609 30.7748 21.374 30.7748 21.7713Z" fill="#FFC844"/>
<path d="M70.9111 28.728V9.14502H74.4586V17.4353H83.533V9.14502H87.09V28.728H83.533V20.409H74.4586V28.728H70.9111Z" fill="#18181B"/>
<path d="M97.2974 29.0148C95.8249 29.0148 94.5531 28.7088 93.4822 28.0969C92.4176 27.4785 91.5985 26.6052 91.0248 25.4769C90.451 24.3422 90.1642 23.0067 90.1642 21.4704C90.1642 19.9596 90.451 18.6337 91.0248 17.4926C91.6049 16.3452 92.4144 15.4527 93.4535 14.8153C94.4926 14.1714 95.7133 13.8495 97.1158 13.8495C98.021 13.8495 98.8752 13.9961 99.6784 14.2894C100.488 14.5762 101.202 15.0225 101.82 15.628C102.445 16.2336 102.936 17.005 103.293 17.942C103.65 18.8727 103.828 19.9819 103.828 21.2696V22.331H91.7897V19.9979H100.51C100.504 19.3349 100.36 18.7453 100.08 18.2289C99.7995 17.7062 99.4074 17.295 98.9038 16.9954C98.4066 16.6958 97.8265 16.546 97.1636 16.546C96.456 16.546 95.8344 16.7181 95.299 17.0623C94.7635 17.4002 94.346 17.8464 94.0464 18.401C93.7531 18.9492 93.6033 19.5516 93.5969 20.2082V22.2449C93.5969 23.0991 93.7531 23.8322 94.0655 24.4442C94.3778 25.0498 94.8145 25.5151 95.3755 25.8402C95.9364 26.159 96.593 26.3183 97.3452 26.3183C97.8488 26.3183 98.3046 26.2482 98.7126 26.108C99.1206 25.9614 99.4744 25.7478 99.774 25.4673C100.074 25.1868 100.3 24.8394 100.453 24.4251L103.685 24.7884C103.481 25.6426 103.092 26.3885 102.518 27.0259C101.951 27.657 101.224 28.1479 100.338 28.4985C99.4521 28.8427 98.4385 29.0148 97.2974 29.0148Z" fill="#18181B"/>
<path d="M110.218 9.14502V28.728H106.757V9.14502H110.218Z" fill="#18181B"/>
<path d="M117.239 9.14502V28.728H113.778V9.14502H117.239Z" fill="#18181B"/>
<path d="M127.205 29.0148C125.771 29.0148 124.528 28.6993 123.476 28.0682C122.424 27.4371 121.608 26.5542 121.028 25.4195C120.454 24.2848 120.167 22.9589 120.167 21.4417C120.167 19.9246 120.454 18.5954 121.028 17.4544C121.608 16.3133 122.424 15.4272 123.476 14.7962C124.528 14.1651 125.771 13.8495 127.205 13.8495C128.639 13.8495 129.882 14.1651 130.934 14.7962C131.986 15.4272 132.799 16.3133 133.372 17.4544C133.952 18.5954 134.243 19.9246 134.243 21.4417C134.243 22.9589 133.952 24.2848 133.372 25.4195C132.799 26.5542 131.986 27.4371 130.934 28.0682C129.882 28.6993 128.639 29.0148 127.205 29.0148ZM127.224 26.2418C128.002 26.2418 128.652 26.0283 129.175 25.6012C129.697 25.1677 130.086 24.5876 130.341 23.8609C130.603 23.1342 130.733 22.3246 130.733 21.4322C130.733 20.5333 130.603 19.7206 130.341 18.9939C130.086 18.2608 129.697 17.6775 129.175 17.244C128.652 16.8105 128.002 16.5938 127.224 16.5938C126.427 16.5938 125.764 16.8105 125.235 17.244C124.712 17.6775 124.32 18.2608 124.059 18.9939C123.804 19.7206 123.677 20.5333 123.677 21.4322C123.677 22.3246 123.804 23.1342 124.059 23.8609C124.32 24.5876 124.712 25.1677 125.235 25.6012C125.764 26.0283 126.427 26.2418 127.224 26.2418Z" fill="#18181B"/>
</svg>
